<?xml version="1.0" encoding="UTF-8" standalone="no"?>
<!DOCTYPE svg PUBLIC "-//W3C//DTD SVG 1.1//EN" "http://www.w3.org/Graphics/SVG/1.1/DTD/svg11.dtd">
<svg width="100%" height="100%" viewBox="0 0 500 500" version="1.1" xmlns="http://www.w3.org/2000/svg" xmlns:xlink="http://www.w3.org/1999/xlink" xml:space="preserve" xmlns:serif="http://www.serif.com/" style="fill-rule:evenodd;clip-rule:evenodd;stroke-linejoin:round;stroke-miterlimit:2;">
    <g transform="matrix(1.08497,0,0,0.95045,-104.242,-11.9173)">
        <path d="M403,485.678C406.439,485.678 409.711,483.991 411.986,481.048C414.261,478.104 415.318,474.186 414.888,470.292L390.408,248.292C389.654,241.452 384.559,236.322 378.52,236.322L274.021,236.322C267.972,236.322 262.871,241.47 262.13,248.323L238.108,470.323C237.688,474.213 238.749,478.123 241.023,481.059C243.298,483.996 246.566,485.678 250,485.678L403,485.678ZM389.415,458.322L263.553,458.322C263.553,458.322 279.843,307.778 284.614,263.678C284.614,263.678 367.952,263.678 367.952,263.678L389.415,458.322Z" style="fill:rgb(212,0,42);"/>
    </g>
    <path d="M126,140.151C208.737,185.581 291.482,183.779 374.221,140.523L374.221,372.617L360.221,372.617C353.046,372.617 347.221,378.443 347.221,385.617C347.221,392.792 353.046,398.617 360.221,398.617L471.221,398.617C478.396,398.617 484.221,392.792 484.221,385.617C484.221,378.443 478.396,372.617 471.221,372.617L457.221,372.617L457.221,125L471.221,125C478.396,125 484.221,119.175 484.221,112C484.221,104.825 478.396,99 471.221,99L464.734,99C466.659,94.329 467.721,89.212 467.721,83.848C467.721,61.855 449.866,44 427.873,44L403.569,44C381.576,44 363.721,61.855 363.721,83.848C363.721,89.212 364.783,94.329 366.708,99L360.221,99C353.046,99 347.221,104.825 347.221,112C347.221,116.222 349.238,119.976 352.36,122.351C284.228,154.837 216.1,156.218 147.968,122.27C151.029,119.891 153,116.174 153,112C153,104.825 147.175,99 140,99L133.513,99C135.438,94.329 136.5,89.212 136.5,83.848C136.5,61.855 118.645,44 96.652,44L72.348,44C50.355,44 32.5,61.855 32.5,83.848C32.5,89.212 33.562,94.329 35.487,99L29,99C21.825,99 16,104.825 16,112C16,119.175 21.825,125 29,125L43,125L43,372.617L29,372.617C21.825,372.617 16,378.443 16,385.617C16,392.792 21.825,398.617 29,398.617L140,398.617C147.175,398.617 153,392.792 153,385.617C153,378.443 147.175,372.617 140,372.617L126,372.617L126,140.151ZM100,125L100,371.695C100,371.695 69,371.695 69,371.695L69,125L100,125ZM400.384,125C400.33,125.056 400.276,125.112 400.221,125.167L400.221,371.695C400.221,371.695 431.221,371.695 431.221,371.695L431.221,125L400.384,125ZM96.652,97.695L72.348,97.695C64.705,97.695 58.5,91.49 58.5,83.848C58.5,76.205 64.705,70 72.348,70C72.348,70 96.652,70 96.652,70C104.295,70 110.5,76.205 110.5,83.848C110.5,91.49 104.295,97.695 96.652,97.695ZM427.873,97.695L403.569,97.695C395.926,97.695 389.721,91.49 389.721,83.848C389.721,76.205 395.926,70 403.569,70C403.569,70 427.873,70 427.873,70C435.516,70 441.721,76.205 441.721,83.848C441.721,91.49 435.516,97.695 427.873,97.695Z" style="fill:rgb(212,0,42);"/>
</svg>
