<?xml version="1.0" encoding="UTF-8" standalone="no"?>
<!DOCTYPE svg PUBLIC "-//W3C//DTD SVG 1.1//EN" "http://www.w3.org/Graphics/SVG/1.1/DTD/svg11.dtd">
<svg width="100%" height="100%" viewBox="0 0 500 500" version="1.1" xmlns="http://www.w3.org/2000/svg" xmlns:xlink="http://www.w3.org/1999/xlink" xml:space="preserve" xmlns:serif="http://www.serif.com/" style="fill-rule:evenodd;clip-rule:evenodd;stroke-linejoin:round;stroke-miterlimit:2;">
    <g transform="matrix(1.09756,0,0,1.09756,-23.0732,-15.0244)">
        <path d="M134,142.156C104.834,142.156 81.156,165.834 81.156,195C81.156,224.166 104.834,247.844 134,247.844C163.166,247.844 186.844,224.166 186.844,195C186.844,165.834 163.166,142.156 134,142.156ZM134,165.844C150.091,165.844 163.156,178.909 163.156,195C163.156,211.091 150.091,224.156 134,224.156C117.909,224.156 104.844,211.091 104.844,195C104.844,178.909 117.909,165.844 134,165.844Z" style="fill:rgb(212,0,42);"/>
    </g>
    <g transform="matrix(1.09756,0,0,1.09756,229.343,-15.0244)">
        <path d="M134,142.156C104.834,142.156 81.156,165.834 81.156,195C81.156,224.166 104.834,247.844 134,247.844C163.166,247.844 186.844,224.166 186.844,195C186.844,165.834 163.166,142.156 134,142.156ZM134,165.844C150.091,165.844 163.156,178.909 163.156,195C163.156,211.091 150.091,224.156 134,224.156C117.909,224.156 104.844,211.091 104.844,195C104.844,178.909 117.909,165.844 134,165.844Z" style="fill:rgb(212,0,42);"/>
    </g>
    <g transform="matrix(1.3896,0,0,1.41463,64.0024,-125.457)">
        <path d="M134,144.81C106.255,144.81 83.645,167.255 83.645,195C83.645,222.745 106.255,245.19 134,245.19C161.745,245.19 184.355,222.745 184.355,195C184.355,167.255 161.745,144.81 134,144.81ZM134,163.19C151.512,163.19 165.645,177.488 165.645,195C165.645,212.512 151.512,226.81 134,226.81C116.488,226.81 102.355,212.512 102.355,195C102.355,177.488 116.488,163.19 134,163.19Z" style="fill:rgb(212,0,42);"/>
    </g>
    <path d="M162.186,260L99.773,260C68.971,260 44,284.971 44,315.773C44,355.972 44,410 44,410C44,417.18 49.82,423 57,423L165,423C165.167,423 165.334,422.997 165.5,422.991C165.666,422.997 165.833,423 166,423L336,423C336.306,423 336.609,422.989 336.909,422.968C337.209,422.989 337.512,423 337.818,423L445.818,423C452.998,423 458.818,417.18 458.818,410L458.818,315.8C458.818,301.001 452.939,286.808 442.475,276.343C432.01,265.879 417.817,260 403.018,260L339.814,260C328.594,241.421 308.209,229 284.924,229L217.076,229C193.791,229 173.406,241.421 162.186,260ZM323,293.076L323,397C323,397 179,397 179,397C179,397 179,293.076 179,293.076C179,272.047 196.047,255 217.076,255C217.076,255 284.924,255 284.924,255C305.953,255 323,272.047 323,293.076ZM152,286L152,397C152,397 70,397 70,397C70,397 70,315.773 70,315.773C70,299.33 83.33,286 99.773,286L152,286ZM432.818,315.8L432.818,397C432.818,397 350.818,397 350.818,397C350.818,397 350.818,286 350.818,286C350.818,286 403.018,286 403.018,286C410.921,286 418.501,289.14 424.09,294.728C429.678,300.317 432.818,307.897 432.818,315.8Z" style="fill:rgb(212,0,42);"/>
</svg>
