<?xml version="1.0" encoding="UTF-8" standalone="no"?>
<!DOCTYPE svg PUBLIC "-//W3C//DTD SVG 1.1//EN" "http://www.w3.org/Graphics/SVG/1.1/DTD/svg11.dtd">
<svg width="100%" height="100%" viewBox="0 0 500 500" version="1.1" xmlns="http://www.w3.org/2000/svg" xmlns:xlink="http://www.w3.org/1999/xlink" xml:space="preserve" xmlns:serif="http://www.serif.com/" style="fill-rule:evenodd;clip-rule:evenodd;stroke-linejoin:round;stroke-miterlimit:2;">
    <path d="M250,178.726C274.063,160.814 303.882,150.209 336.158,150.209C340.879,150.209 345.548,150.436 350.161,150.881L330.646,119.03C328.79,116 328.254,112.342 329.165,108.907L338.23,74.716C340.07,67.776 347.187,63.641 354.127,65.481L437.2,87.505C444.14,89.345 448.274,96.463 446.434,103.402L437.37,137.594C436.459,141.029 434.182,143.941 431.068,145.654L397.75,163.975C446.739,187.121 480.66,236.986 480.66,294.711C480.66,374.464 415.911,439.213 336.158,439.213C303.882,439.213 274.063,428.609 250,410.696C225.937,428.609 196.118,439.213 163.842,439.213C84.089,439.213 19.34,374.464 19.34,294.711C19.34,214.958 84.089,150.209 163.842,150.209C196.118,150.209 225.937,160.814 250,178.726ZM230.705,195.958C206.493,221.794 191.656,256.534 191.656,294.711C191.656,332.889 206.493,367.629 230.705,393.465C211.629,406.413 188.612,413.98 163.842,413.98C98.016,413.98 44.573,360.538 44.573,294.711C44.573,228.885 98.016,175.442 163.842,175.442C188.612,175.442 211.629,183.01 230.705,195.958ZM269.295,393.465C293.507,367.629 308.344,332.889 308.344,294.711C308.344,256.534 293.507,221.794 269.295,195.958C288.371,183.01 311.388,175.442 336.158,175.442C401.984,175.442 455.427,228.885 455.427,294.711C455.427,360.538 401.984,413.98 336.158,413.98C311.388,413.98 288.371,406.413 269.295,393.465ZM250,212.272C270.509,233.701 283.111,262.746 283.111,294.711C283.111,326.677 270.509,355.722 250,377.151C229.491,355.722 216.889,326.677 216.889,294.711C216.889,262.746 229.491,233.701 250,212.272ZM417.971,109.305L413.664,125.552C413.664,125.552 377.365,145.513 377.365,145.513C377.365,145.513 355.723,110.191 355.723,110.191C355.723,110.191 360.03,93.944 360.03,93.944C360.03,93.944 417.971,109.305 417.971,109.305Z" style="fill:rgb(212,0,42);"/>
</svg>
